<svg width="756" height="556" viewBox="0 0 756 556" fill="none" xmlns="http://www.w3.org/2000/svg">
<path d="M76.88 213.11C51.6333 213.11 33.0367 209.03 21.09 200.87C9.14333 192.71 2.47666 179.31 1.09 160.67H53C53.78 167.47 56.0633 172.227 59.85 174.94C63.6366 177.653 69.7033 179.007 78.05 179C92.23 179 99.32 175.213 99.32 167.64C99.352 165.888 98.9027 164.16 98.0211 162.646C97.1395 161.131 95.8594 159.888 94.32 159.05C90.9867 157.01 85.06 155.31 76.54 153.95L55 150.76C20.2333 145.713 2.85001 130.08 2.85001 103.86C2.85001 87.9267 9.01667 75.7367 21.35 67.29C33.6833 58.8433 51.6033 54.62 75.11 54.62C121.723 54.62 146.097 72.0033 148.23 106.77H99C98.6067 94.73 90.6433 88.71 75.11 88.71C61.8967 88.71 55.29 92.4967 55.29 100.07C55.2131 101.642 55.5664 103.206 56.3117 104.593C57.057 105.979 58.1662 107.137 59.52 107.94C62.3334 109.68 67.14 111.037 73.94 112.01L99.58 115.51C117.64 118.043 130.993 123.19 139.64 130.95C148.287 138.71 152.62 149.49 152.64 163.29C152.64 179.223 146.037 191.51 132.83 200.15C119.623 208.79 100.973 213.11 76.88 213.11ZM220.81 208.45H167.2V58.11H220.81V208.45ZM219.35 43H169V1H219.4L219.35 43ZM344.92 76.51V58.11H397.36V204.37C397.36 224.77 390.417 240.65 376.53 252.01C362.643 263.37 343.073 269.037 317.82 269.01C293.927 269.01 275.477 263.91 262.47 253.71C249.463 243.51 242.663 229.38 242.07 211.32H294.81C295.39 223.56 303.547 229.68 319.28 229.68C327.24 229.68 333.31 227.64 337.49 223.56C341.67 219.48 343.757 213.75 343.75 206.37V183.1C334.823 196.12 321.423 202.627 303.55 202.62C284.123 202.62 268.39 195.62 256.35 181.62C244.297 167.873 238.277 150.11 238.29 128.33C238.29 106.377 244.117 88.6033 255.77 75.01C267.423 61.4167 282.96 54.62 302.38 54.62C321.8 54.62 335.98 61.9033 344.92 76.47V76.51ZM292.19 129.51C292.19 150.303 300.93 160.697 318.41 160.69C335.89 160.683 344.63 149.903 344.63 128.35C344.63 107.177 335.89 96.59 318.41 96.59C300.93 96.59 292.19 107.557 292.19 129.49V129.51ZM520 54.62C535.54 54.62 548.07 59.5233 557.59 69.33C567.11 79.1367 571.867 93.0733 571.86 111.14V208.45H518.26V122.5C518.26 107.553 511.46 100.077 497.86 100.07C491.06 100.07 485.427 102.253 480.96 106.62C476.493 110.987 474.26 117.153 474.26 125.12V208.45H420.66V58.11H473.11V77.93C485.15 62.39 500.78 54.62 520 54.62ZM518.26 310.62V227.25H571.86V377.59H519.43V357.78C507.39 373.32 491.753 381.087 472.52 381.08C456.98 381.08 444.453 376.177 434.94 366.37C425.427 356.563 420.667 342.627 420.66 324.56V227.25H474.27V313.2C474.27 328.16 481.07 335.637 494.67 335.63C497.782 335.728 500.882 335.198 503.786 334.073C506.689 332.948 509.336 331.25 511.57 329.08C516.03 324.713 518.263 318.547 518.27 310.58L518.26 310.62ZM690.44 223.8C710.247 223.8 725.883 230.89 737.35 245.07C748.817 259.25 754.547 278.38 754.54 302.46C754.54 326.547 748.81 345.68 737.35 359.86C725.89 374.04 710.253 381.127 690.44 381.12C672.38 381.12 658.493 374.517 648.78 361.31V434.73H595.17V227.25H647.32V245.9C656.847 231.14 671.223 223.76 690.45 223.76L690.44 223.8ZM674.44 265.75C656.96 265.75 648.22 277.987 648.22 302.46C648.22 326.933 656.96 339.17 674.44 339.17C691.92 339.17 700.66 326.547 700.66 301.3C700.653 277.573 691.91 265.71 674.43 265.71L674.44 265.75ZM282.86 382.9H271.21C259.55 382.9 253.72 387.567 253.72 396.9V401H282.86V438.88H253.72V551.3H200.12V438.84H178.85V401H200.12V394.89C200.12 379.15 205.023 366.483 214.83 356.89C224.637 347.297 239.36 342.467 259 342.4C266.983 342.472 274.957 342.959 282.89 343.86L282.86 382.9ZM428.86 533.24C414.1 547.613 394.387 554.8 369.72 554.8C345.053 554.8 325.34 547.613 310.58 533.24C296.013 518.86 288.73 499.823 288.73 476.13C288.73 452.05 296.013 432.92 310.58 418.74C324.953 404.56 344.667 397.47 369.72 397.47C394.773 397.47 414.487 404.56 428.86 418.74C443.427 433.113 450.713 452.243 450.72 476.13C450.693 499.83 443.393 518.867 428.82 533.24H428.86ZM369.72 439.42C351.66 439.42 342.63 451.657 342.63 476.13C342.63 500.603 351.66 512.84 369.72 512.84C387.78 512.84 396.813 500.603 396.82 476.13C396.827 451.657 387.78 439.42 369.68 439.42H369.72ZM561.13 398.63C564.743 398.589 568.352 398.884 571.91 399.51V447.58H557.91C533.817 447.58 521.773 460.787 521.78 487.2V551.3H468.15V401H520.6V430.72C525.84 409.333 539.337 398.637 561.09 398.63H561.13Z" stroke="white" stroke-width="2" stroke-miterlimit="10"/>
</svg>
